<svg width="32" height="32" viewBox="0 0 32 32" fill="none" xmlns="http://www.w3.org/2000/svg">
<g clip-path="url(#clip0_9_2)">
<path d="M12 25.3334C6.26667 27.2001 6.26667 22.0001 4 21.3334M20 28.0001V23.3334C20 22.0001 20.1333 21.4667 19.3333 20.6667C23.0667 20.2667 26.6667 18.8001 26.6667 12.6667C26.665 11.0733 26.0434 9.54313 24.9333 8.40006C25.454 7.01601 25.406 5.48223 24.8 4.13339C24.8 4.13339 23.3333 3.73339 20.1333 5.86672C17.423 5.16084 14.577 5.16084 11.8667 5.86672C8.66667 3.73339 7.2 4.13339 7.2 4.13339C6.59397 5.48223 6.54604 7.01601 7.06667 8.40006C5.9566 9.54313 5.33496 11.0733 5.33333 12.6667C5.33333 18.8001 8.93333 20.2667 12.6667 20.6667C11.8667 21.4667 11.8667 22.2667 12 23.3334V28.0001" stroke="#A27B5C" stroke-width="2" stroke-linecap="round" stroke-linejoin="round"/>
</g>
<defs>
<clipPath id="clip0_9_2">
<rect width="32" height="32" fill="white"/>
</clipPath>
</defs>
</svg>
